<svg width="24" height="24" viewBox="0 0 24 24" fill="none" xmlns="http://www.w3.org/2000/svg">
<path d="M11.9996 2.46024C15.1069 2.46024 15.4746 2.47225 16.7019 2.52814C17.8363 2.57987 18.4525 2.76925 18.8627 2.92861C19.4059 3.1397 19.7934 3.3919 20.2008 3.79884C20.6082 4.20625 20.8604 4.59378 21.071 5.13699C21.2304 5.54716 21.4198 6.16334 21.4715 7.29778C21.5274 8.52461 21.5394 8.89275 21.5394 12C21.5394 15.1072 21.5274 15.4749 21.4715 16.7022C21.4198 17.8366 21.2304 18.4528 21.071 18.863C20.8599 19.4062 20.6077 19.7937 20.2008 20.2011C19.7934 20.6085 19.4059 20.8607 18.8627 21.0714C18.4525 21.2307 17.8363 21.4201 16.7019 21.4718C15.475 21.5277 15.1069 21.5397 11.9996 21.5397C8.8924 21.5397 8.52426 21.5277 7.29743 21.4718C6.16299 21.4201 5.5468 21.2307 5.13663 21.0714C4.59343 20.8603 4.20589 20.6081 3.79848 20.2011C3.39108 19.7937 3.13888 19.4062 2.92825 18.863C2.76889 18.4528 2.57951 17.8366 2.52778 16.7022C2.47189 15.4754 2.45988 15.1072 2.45988 12C2.45988 8.89275 2.47189 8.52507 2.52778 7.29778C2.57951 6.16334 2.76889 5.54716 2.92825 5.13699C3.13934 4.59378 3.39154 4.20625 3.79848 3.79884C4.20589 3.39144 4.59343 3.13924 5.13663 2.92861C5.5468 2.76925 6.16299 2.57987 7.29743 2.52814C8.52472 2.47225 8.8924 2.46024 11.9996 2.46024ZM11.9996 0.363647C8.83928 0.363647 8.44296 0.377043 7.20182 0.433857C5.96344 0.49021 5.11769 0.686982 4.37725 0.974749C3.61187 1.27222 2.96289 1.66992 2.31622 2.31705C1.66955 2.96372 1.27139 3.6127 0.974384 4.37761C0.686616 5.11805 0.489844 5.9638 0.433491 7.20217C0.376677 8.44331 0.363281 8.83963 0.363281 12C0.363281 15.1604 0.376677 15.5567 0.433491 16.7978C0.489844 18.0362 0.686616 18.8819 0.974384 19.6224C1.27185 20.3877 1.66955 21.0367 2.31669 21.6834C2.96382 22.3305 3.61234 22.7282 4.37772 23.0257C5.11769 23.3135 5.9639 23.5102 7.20228 23.5666C8.44342 23.6234 8.83974 23.6368 12.0001 23.6368C15.1605 23.6368 15.5568 23.6234 16.7979 23.5666C18.0363 23.5102 18.8825 23.3135 19.6225 23.0257C20.3879 22.7282 21.0369 22.3305 21.6835 21.6834C22.3307 21.0363 22.7284 20.3877 23.0258 19.6224C23.3136 18.8824 23.5104 18.0362 23.5667 16.7978C23.6235 15.5567 23.6369 15.1604 23.6369 12C23.6369 8.83963 23.6235 8.44331 23.5667 7.20217C23.5104 5.9638 23.3136 5.11759 23.0258 4.37761C22.7284 3.61223 22.3307 2.96326 21.6835 2.31659C21.0364 1.66946 20.3879 1.27176 19.6225 0.974288C18.8816 0.686982 18.0358 0.49021 16.7975 0.433857C15.5563 0.377043 15.16 0.363647 11.9996 0.363647Z" fill="white"/>
<path d="M11.9996 6.02469C8.69932 6.02469 6.02441 8.70006 6.02441 11.9999C6.02441 15.2998 8.69978 17.9752 11.9996 17.9752C15.2995 17.9752 17.9749 15.2998 17.9749 11.9999C17.9749 8.70006 15.3 6.02469 11.9996 6.02469ZM11.9996 15.8786C9.85732 15.8786 8.12101 14.1418 8.12101 11.9999C8.12101 9.8576 9.85778 8.12129 11.9996 8.12129C14.1415 8.12129 15.8783 9.85806 15.8783 11.9999C15.8783 14.1423 14.142 15.8786 11.9996 15.8786Z" fill="white"/>
<path d="M18.2113 7.18467C18.9825 7.18467 19.6077 6.55951 19.6077 5.78833C19.6077 5.01716 18.9825 4.39199 18.2113 4.39199C17.4401 4.39199 16.815 5.01716 16.815 5.78833C16.815 6.55951 17.4401 7.18467 18.2113 7.18467Z" fill="white"/>
</svg>
