<svg width="28" height="23" viewBox="0 0 28 23" fill="none" xmlns="http://www.w3.org/2000/svg">
<path fill-rule="evenodd" clip-rule="evenodd" d="M9.13356 22.1073C19.0133 22.1073 24.4194 13.9144 24.4194 6.82151C24.4194 6.59102 24.4194 6.36053 24.4089 6.13003C25.4566 5.3757 26.3681 4.4223 27.091 3.34317C26.1271 3.77273 25.0899 4.0556 24.0003 4.1918C25.1109 3.53176 25.9595 2.47359 26.3681 1.21636C25.3309 1.8345 24.1784 2.27453 22.9526 2.5155C21.9678 1.46781 20.5744 0.818237 19.0342 0.818237C16.0693 0.818237 13.6596 3.22793 13.6596 6.1929C13.6596 6.61197 13.712 7.02057 13.7958 7.4187C9.33262 7.19868 5.37235 5.05091 2.72169 1.80307C2.2607 2.59931 1.99878 3.52128 1.99878 4.50611C1.99878 6.371 2.95218 8.01588 4.38752 8.97976C3.50746 8.94833 2.67978 8.70736 1.95687 8.30923C1.95687 8.33019 1.95687 8.35114 1.95687 8.38257C1.95687 10.9808 3.81129 13.16 6.26288 13.6525C5.81238 13.7782 5.34092 13.841 4.8485 13.841C4.50276 13.841 4.1675 13.8096 3.84272 13.7468C4.52372 15.884 6.51433 17.4346 8.86116 17.4765C7.01722 18.9224 4.70182 19.7815 2.18736 19.7815C1.75781 19.7815 1.32826 19.7605 0.90918 19.7081C3.27696 21.2168 6.10573 22.1073 9.13356 22.1073Z" fill="white"/>
</svg>
